<mxfile host="app.diagrams.net" modified="2023-09-26T07:28:21.319Z" agent="Mozilla/5.0 (Windows NT 10.0; Win64; x64) AppleWebKit/537.36 (KHTML, like Gecko) Chrome/116.0.0.0 Safari/537.36" etag="Xy4L2aUobmruHCq97Klc" version="21.7.5" type="device">
  <diagram name="Page-1" id="t7w8CBSZK_SbJYfzWc5A">
    <mxGraphModel dx="1257" dy="651" grid="1" gridSize="10" guides="1" tooltips="1" connect="1" arrows="1" fold="1" page="1" pageScale="1" pageWidth="827" pageHeight="1169" math="0" shadow="0">
      <root>
        <mxCell id="0" />
        <mxCell id="1" parent="0" />
        <mxCell id="6UEg_T7qLsgLMxlgTTdw-13" value="Borrowing" style="swimlane;fontStyle=0;childLayout=stackLayout;horizontal=1;startSize=26;fillColor=none;horizontalStack=0;resizeParent=1;resizeParentMax=0;resizeLast=0;collapsible=1;marginBottom=0;whiteSpace=wrap;html=1;" vertex="1" parent="1">
          <mxGeometry x="360" y="50" width="140" height="120" as="geometry" />
        </mxCell>
        <object label="id:&lt;br&gt;Bookname:&lt;br&gt;Borrower:&lt;br&gt;Date:&lt;br&gt;Due date:" Email="" Age="" Password="" id="6UEg_T7qLsgLMxlgTTdw-14">
          <mxCell style="text;strokeColor=none;fillColor=none;align=left;verticalAlign=top;spacingLeft=4;spacingRight=4;overflow=hidden;rotatable=0;points=[[0,0.5],[1,0.5]];portConstraint=eastwest;whiteSpace=wrap;html=1;" vertex="1" parent="6UEg_T7qLsgLMxlgTTdw-13">
            <mxGeometry y="26" width="140" height="94" as="geometry" />
          </mxCell>
        </object>
        <mxCell id="6UEg_T7qLsgLMxlgTTdw-25" style="edgeStyle=orthogonalEdgeStyle;rounded=0;orthogonalLoop=1;jettySize=auto;html=1;" edge="1" parent="1" source="6UEg_T7qLsgLMxlgTTdw-15" target="6UEg_T7qLsgLMxlgTTdw-14">
          <mxGeometry relative="1" as="geometry" />
        </mxCell>
        <mxCell id="6UEg_T7qLsgLMxlgTTdw-15" value="Books" style="swimlane;fontStyle=0;childLayout=stackLayout;horizontal=1;startSize=26;fillColor=none;horizontalStack=0;resizeParent=1;resizeParentMax=0;resizeLast=0;collapsible=1;marginBottom=0;whiteSpace=wrap;html=1;" vertex="1" parent="1">
          <mxGeometry x="560" y="170" width="140" height="100" as="geometry" />
        </mxCell>
        <object label="BookId:&lt;br&gt;Title:&lt;br&gt;Author:" Email="" Age="" Password="" id="6UEg_T7qLsgLMxlgTTdw-16">
          <mxCell style="text;strokeColor=none;fillColor=none;align=left;verticalAlign=top;spacingLeft=4;spacingRight=4;overflow=hidden;rotatable=0;points=[[0,0.5],[1,0.5]];portConstraint=eastwest;whiteSpace=wrap;html=1;" vertex="1" parent="6UEg_T7qLsgLMxlgTTdw-15">
            <mxGeometry y="26" width="140" height="74" as="geometry" />
          </mxCell>
        </object>
        <mxCell id="6UEg_T7qLsgLMxlgTTdw-17" value="" style="swimlane;fontStyle=0;childLayout=stackLayout;horizontal=1;startSize=26;fillColor=none;horizontalStack=0;resizeParent=1;resizeParentMax=0;resizeLast=0;collapsible=1;marginBottom=0;whiteSpace=wrap;html=1;" vertex="1" parent="1">
          <mxGeometry x="60" y="40" width="140" height="186" as="geometry">
            <mxRectangle x="60" y="40" width="60" height="30" as="alternateBounds" />
          </mxGeometry>
        </mxCell>
        <mxCell id="6UEg_T7qLsgLMxlgTTdw-8" value="user" style="swimlane;fontStyle=0;childLayout=stackLayout;horizontal=1;startSize=26;fillColor=none;horizontalStack=0;resizeParent=1;resizeParentMax=0;resizeLast=0;collapsible=1;marginBottom=0;whiteSpace=wrap;html=1;" vertex="1" parent="6UEg_T7qLsgLMxlgTTdw-17">
          <mxGeometry y="26" width="140" height="160" as="geometry" />
        </mxCell>
        <object label="UserId:&lt;br&gt;Name:&lt;br&gt;Age:&lt;br&gt;Email:&lt;br&gt;Password:&lt;br&gt;&lt;br&gt;Create()&lt;br&gt;Update()" Email="" Age="" Password="" id="6UEg_T7qLsgLMxlgTTdw-9">
          <mxCell style="text;strokeColor=none;fillColor=none;align=left;verticalAlign=top;spacingLeft=4;spacingRight=4;overflow=hidden;rotatable=0;points=[[0,0.5],[1,0.5]];portConstraint=eastwest;whiteSpace=wrap;html=1;" vertex="1" parent="6UEg_T7qLsgLMxlgTTdw-8">
            <mxGeometry y="26" width="140" height="134" as="geometry" />
          </mxCell>
        </object>
        <mxCell id="6UEg_T7qLsgLMxlgTTdw-24" style="edgeStyle=orthogonalEdgeStyle;rounded=0;orthogonalLoop=1;jettySize=auto;html=1;entryX=1.014;entryY=0.716;entryDx=0;entryDy=0;entryPerimeter=0;" edge="1" parent="1" source="6UEg_T7qLsgLMxlgTTdw-19" target="6UEg_T7qLsgLMxlgTTdw-9">
          <mxGeometry relative="1" as="geometry" />
        </mxCell>
        <mxCell id="6UEg_T7qLsgLMxlgTTdw-19" value="Student" style="swimlane;fontStyle=0;childLayout=stackLayout;horizontal=1;startSize=26;fillColor=none;horizontalStack=0;resizeParent=1;resizeParentMax=0;resizeLast=0;collapsible=1;marginBottom=0;whiteSpace=wrap;html=1;" vertex="1" parent="1">
          <mxGeometry x="300" y="270" width="140" height="80" as="geometry" />
        </mxCell>
        <object label="Name:&lt;br&gt;Course:&lt;br&gt;Year:" Email="" Age="" Password="" id="6UEg_T7qLsgLMxlgTTdw-20">
          <mxCell style="text;strokeColor=none;fillColor=none;align=left;verticalAlign=top;spacingLeft=4;spacingRight=4;overflow=hidden;rotatable=0;points=[[0,0.5],[1,0.5]];portConstraint=eastwest;whiteSpace=wrap;html=1;" vertex="1" parent="6UEg_T7qLsgLMxlgTTdw-19">
            <mxGeometry y="26" width="140" height="54" as="geometry" />
          </mxCell>
        </object>
        <mxCell id="6UEg_T7qLsgLMxlgTTdw-23" style="edgeStyle=orthogonalEdgeStyle;rounded=0;orthogonalLoop=1;jettySize=auto;html=1;exitX=0.5;exitY=0;exitDx=0;exitDy=0;entryX=0.536;entryY=1;entryDx=0;entryDy=0;entryPerimeter=0;" edge="1" parent="1" source="6UEg_T7qLsgLMxlgTTdw-21" target="6UEg_T7qLsgLMxlgTTdw-9">
          <mxGeometry relative="1" as="geometry" />
        </mxCell>
        <mxCell id="6UEg_T7qLsgLMxlgTTdw-21" value="Librarian" style="swimlane;fontStyle=0;childLayout=stackLayout;horizontal=1;startSize=26;fillColor=none;horizontalStack=0;resizeParent=1;resizeParentMax=0;resizeLast=0;collapsible=1;marginBottom=0;whiteSpace=wrap;html=1;" vertex="1" parent="1">
          <mxGeometry x="80" y="280" width="140" height="80" as="geometry" />
        </mxCell>
        <object label="department:&lt;br&gt;Name:" Email="" Age="" Password="" id="6UEg_T7qLsgLMxlgTTdw-22">
          <mxCell style="text;strokeColor=none;fillColor=none;align=left;verticalAlign=top;spacingLeft=4;spacingRight=4;overflow=hidden;rotatable=0;points=[[0,0.5],[1,0.5]];portConstraint=eastwest;whiteSpace=wrap;html=1;" vertex="1" parent="6UEg_T7qLsgLMxlgTTdw-21">
            <mxGeometry y="26" width="140" height="54" as="geometry" />
          </mxCell>
        </object>
        <mxCell id="6UEg_T7qLsgLMxlgTTdw-26" value="Borrowing" style="swimlane;fontStyle=0;childLayout=stackLayout;horizontal=1;startSize=26;fillColor=none;horizontalStack=0;resizeParent=1;resizeParentMax=0;resizeLast=0;collapsible=1;marginBottom=0;whiteSpace=wrap;html=1;" vertex="1" parent="1">
          <mxGeometry x="370" y="435" width="140" height="120" as="geometry" />
        </mxCell>
        <object label="id:&lt;br&gt;Bookname:&lt;br&gt;Borrower:&lt;br&gt;Date:&lt;br&gt;Due date:" Email="" Age="" Password="" id="6UEg_T7qLsgLMxlgTTdw-27">
          <mxCell style="text;strokeColor=none;fillColor=none;align=left;verticalAlign=top;spacingLeft=4;spacingRight=4;overflow=hidden;rotatable=0;points=[[0,0.5],[1,0.5]];portConstraint=eastwest;whiteSpace=wrap;html=1;" vertex="1" parent="6UEg_T7qLsgLMxlgTTdw-26">
            <mxGeometry y="26" width="140" height="94" as="geometry" />
          </mxCell>
        </object>
        <mxCell id="6UEg_T7qLsgLMxlgTTdw-28" style="edgeStyle=orthogonalEdgeStyle;rounded=0;orthogonalLoop=1;jettySize=auto;html=1;" edge="1" parent="1" source="6UEg_T7qLsgLMxlgTTdw-29" target="6UEg_T7qLsgLMxlgTTdw-27">
          <mxGeometry relative="1" as="geometry" />
        </mxCell>
        <mxCell id="6UEg_T7qLsgLMxlgTTdw-29" value="Books" style="swimlane;fontStyle=0;childLayout=stackLayout;horizontal=1;startSize=26;fillColor=none;horizontalStack=0;resizeParent=1;resizeParentMax=0;resizeLast=0;collapsible=1;marginBottom=0;whiteSpace=wrap;html=1;" vertex="1" parent="1">
          <mxGeometry x="570" y="555" width="140" height="100" as="geometry" />
        </mxCell>
        <object label="BookId:&lt;br&gt;Title:&lt;br&gt;Author:" Email="" Age="" Password="" id="6UEg_T7qLsgLMxlgTTdw-30">
          <mxCell style="text;strokeColor=none;fillColor=none;align=left;verticalAlign=top;spacingLeft=4;spacingRight=4;overflow=hidden;rotatable=0;points=[[0,0.5],[1,0.5]];portConstraint=eastwest;whiteSpace=wrap;html=1;" vertex="1" parent="6UEg_T7qLsgLMxlgTTdw-29">
            <mxGeometry y="26" width="140" height="74" as="geometry" />
          </mxCell>
        </object>
        <mxCell id="6UEg_T7qLsgLMxlgTTdw-31" value="" style="swimlane;fontStyle=0;childLayout=stackLayout;horizontal=1;startSize=26;fillColor=none;horizontalStack=0;resizeParent=1;resizeParentMax=0;resizeLast=0;collapsible=1;marginBottom=0;whiteSpace=wrap;html=1;" vertex="1" parent="1">
          <mxGeometry x="70" y="425" width="140" height="186" as="geometry">
            <mxRectangle x="60" y="40" width="60" height="30" as="alternateBounds" />
          </mxGeometry>
        </mxCell>
        <mxCell id="6UEg_T7qLsgLMxlgTTdw-32" value="user" style="swimlane;fontStyle=0;childLayout=stackLayout;horizontal=1;startSize=26;fillColor=none;horizontalStack=0;resizeParent=1;resizeParentMax=0;resizeLast=0;collapsible=1;marginBottom=0;whiteSpace=wrap;html=1;" vertex="1" parent="6UEg_T7qLsgLMxlgTTdw-31">
          <mxGeometry y="26" width="140" height="160" as="geometry" />
        </mxCell>
        <object label="UserId:&lt;br&gt;Name:&lt;br&gt;Age:&lt;br&gt;Email:&lt;br&gt;Password:&lt;br&gt;&lt;br&gt;Create()&lt;br&gt;Update()" Email="" Age="" Password="" id="6UEg_T7qLsgLMxlgTTdw-33">
          <mxCell style="text;strokeColor=none;fillColor=none;align=left;verticalAlign=top;spacingLeft=4;spacingRight=4;overflow=hidden;rotatable=0;points=[[0,0.5],[1,0.5]];portConstraint=eastwest;whiteSpace=wrap;html=1;" vertex="1" parent="6UEg_T7qLsgLMxlgTTdw-32">
            <mxGeometry y="26" width="140" height="134" as="geometry" />
          </mxCell>
        </object>
        <mxCell id="6UEg_T7qLsgLMxlgTTdw-34" style="edgeStyle=orthogonalEdgeStyle;rounded=0;orthogonalLoop=1;jettySize=auto;html=1;entryX=1.014;entryY=0.716;entryDx=0;entryDy=0;entryPerimeter=0;" edge="1" parent="1" source="6UEg_T7qLsgLMxlgTTdw-35" target="6UEg_T7qLsgLMxlgTTdw-33">
          <mxGeometry relative="1" as="geometry" />
        </mxCell>
        <mxCell id="6UEg_T7qLsgLMxlgTTdw-35" value="Student" style="swimlane;fontStyle=0;childLayout=stackLayout;horizontal=1;startSize=26;fillColor=none;horizontalStack=0;resizeParent=1;resizeParentMax=0;resizeLast=0;collapsible=1;marginBottom=0;whiteSpace=wrap;html=1;" vertex="1" parent="1">
          <mxGeometry x="310" y="655" width="140" height="80" as="geometry" />
        </mxCell>
        <object label="Name:&lt;br&gt;Course:&lt;br&gt;Year:" Email="" Age="" Password="" id="6UEg_T7qLsgLMxlgTTdw-36">
          <mxCell style="text;strokeColor=none;fillColor=none;align=left;verticalAlign=top;spacingLeft=4;spacingRight=4;overflow=hidden;rotatable=0;points=[[0,0.5],[1,0.5]];portConstraint=eastwest;whiteSpace=wrap;html=1;" vertex="1" parent="6UEg_T7qLsgLMxlgTTdw-35">
            <mxGeometry y="26" width="140" height="54" as="geometry" />
          </mxCell>
        </object>
        <mxCell id="6UEg_T7qLsgLMxlgTTdw-37" style="edgeStyle=orthogonalEdgeStyle;rounded=0;orthogonalLoop=1;jettySize=auto;html=1;exitX=0.5;exitY=0;exitDx=0;exitDy=0;entryX=0.536;entryY=1;entryDx=0;entryDy=0;entryPerimeter=0;" edge="1" parent="1" source="6UEg_T7qLsgLMxlgTTdw-38" target="6UEg_T7qLsgLMxlgTTdw-33">
          <mxGeometry relative="1" as="geometry" />
        </mxCell>
        <mxCell id="6UEg_T7qLsgLMxlgTTdw-38" value="Librarian" style="swimlane;fontStyle=0;childLayout=stackLayout;horizontal=1;startSize=26;fillColor=none;horizontalStack=0;resizeParent=1;resizeParentMax=0;resizeLast=0;collapsible=1;marginBottom=0;whiteSpace=wrap;html=1;" vertex="1" parent="1">
          <mxGeometry x="90" y="665" width="140" height="80" as="geometry" />
        </mxCell>
        <object label="department:&lt;br&gt;Name:" Email="" Age="" Password="" id="6UEg_T7qLsgLMxlgTTdw-39">
          <mxCell style="text;strokeColor=none;fillColor=none;align=left;verticalAlign=top;spacingLeft=4;spacingRight=4;overflow=hidden;rotatable=0;points=[[0,0.5],[1,0.5]];portConstraint=eastwest;whiteSpace=wrap;html=1;" vertex="1" parent="6UEg_T7qLsgLMxlgTTdw-38">
            <mxGeometry y="26" width="140" height="54" as="geometry" />
          </mxCell>
        </object>
      </root>
    </mxGraphModel>
  </diagram>
</mxfile>
